<svg height="512pt" viewBox="-21 0 512 512" width="512pt" xmlns="http://www.w3.org/2000/svg"><path d="m277.078125 102.355469c3.070313 2.882812 6.996094 4.3125 10.921875 4.3125s7.851562-1.429688 10.921875-4.3125l80-74.664063c4.800781-4.480468 6.378906-11.433594 3.96875-17.558594-2.410156-6.121093-8.320313-10.132812-14.890625-10.132812h-160c-6.570312 0-12.480469 4.011719-14.890625 10.132812-2.410156 6.125-.832031 13.078126 3.96875 17.558594zm0 0" fill="#42a5f5"/><path d="m288 106.667969c-3.925781 0-7.851562-1.429688-10.921875-4.3125l-80-74.664063c-4.800781-4.480468-6.378906-11.457031-3.96875-17.558594 2.410156-6.101562 8.320313-10.132812 14.890625-10.132812h160c6.570312 0 12.480469 4.011719 14.890625 10.132812 2.410156 6.125.832031 13.078126-3.96875 17.558594l-80 74.664063c-3.070313 2.882812-6.996094 4.3125-10.921875 4.3125zm-39.402344-74.667969 39.402344 36.777344 39.402344-36.777344zm0 0"/><path d="m432 512h-53.332031c-20.589844 0-37.335938-16.746094-37.335938-37.332031v-330.667969c0-20.585938 16.746094-37.332031 37.335938-37.332031h53.332031c20.585938 0 37.332031 16.746093 37.332031 37.332031v330.667969c0 20.585937-16.746093 37.332031-37.332031 37.332031zm-53.332031-373.332031c-2.945313 0-5.335938 2.386719-5.335938 5.332031v330.667969c0 2.941406 2.390625 5.332031 5.335938 5.332031h53.332031c2.945312 0 5.332031-2.390625 5.332031-5.332031v-330.667969c0-2.945312-2.386719-5.332031-5.332031-5.332031zm0 0"/><path d="m197.332031 512h-160c-20.585937 0-37.332031-16.746094-37.332031-37.332031v-330.667969c0-20.585938 16.746094-37.332031 37.332031-37.332031h160c20.589844 0 37.335938 16.746093 37.335938 37.332031v330.667969c0 20.585937-16.746094 37.332031-37.335938 37.332031zm-160-373.332031c-2.941406 0-5.332031 2.386719-5.332031 5.332031v330.667969c0 2.941406 2.390625 5.332031 5.332031 5.332031h160c2.945313 0 5.335938-2.390625 5.335938-5.332031v-330.667969c0-2.945312-2.390625-5.332031-5.335938-5.332031zm0 0"/><path d="m453.332031 325.332031h-96c-8.832031 0-16-7.167969-16-16s7.167969-16 16-16h96c8.832031 0 16 7.167969 16 16s-7.167969 16-16 16zm0 0"/><path d="m218.667969 325.332031h-202.667969c-8.832031 0-16-7.167969-16-16s7.167969-16 16-16h202.667969c8.832031 0 16 7.167969 16 16s-7.167969 16-16 16zm0 0"/><path d="m117.332031 512c-8.832031 0-16-7.167969-16-16v-373.332031c0-8.832031 7.167969-16 16-16s16 7.167969 16 16v373.332031c0 8.832031-7.167969 16-16 16zm0 0"/></svg>