<svg height="512pt" viewBox="-21 0 512 512" width="512pt" xmlns="http://www.w3.org/2000/svg"><path d="m276.203125 10.132812c-2.390625-6.121093-8.300781-10.132812-14.871094-10.132812h-160c-6.570312 0-12.480469 4.011719-14.867187 10.132812-2.410156 6.125-.855469 13.078126 3.96875 17.558594l80 74.664063c3.070312 2.882812 6.972656 4.3125 10.898437 4.3125s7.832031-1.429688 10.925781-4.3125l80-74.664063c4.796876-4.480468 6.375-11.433594 3.945313-17.558594zm0 0" fill="#42a5f5"/><path d="m181.332031 106.667969c-3.925781 0-7.828125-1.429688-10.921875-4.3125l-80-74.664063c-4.820312-4.480468-6.378906-11.457031-3.96875-17.558594 2.410156-6.121093 8.320313-10.132812 14.890625-10.132812h160c6.570313 0 12.480469 4.011719 14.871094 10.132812 2.410156 6.125.851563 13.078126-3.96875 17.558594l-80 74.664063c-3.070313 2.882812-6.976563 4.3125-10.902344 4.3125zm-39.421875-74.667969 39.421875 36.777344 39.425781-36.777344zm0 0"/><path d="m90.667969 512h-53.335938c-20.585937 0-37.332031-16.746094-37.332031-37.332031v-330.667969c0-20.585938 16.746094-37.332031 37.332031-37.332031h53.335938c20.585937 0 37.332031 16.746093 37.332031 37.332031v330.667969c0 20.585937-16.746094 37.332031-37.332031 37.332031zm-53.335938-373.332031c-2.941406 0-5.332031 2.386719-5.332031 5.332031v330.667969c0 2.941406 2.390625 5.332031 5.332031 5.332031h53.335938c2.941406 0 5.332031-2.390625 5.332031-5.332031v-330.667969c0-2.945312-2.390625-5.332031-5.332031-5.332031zm0 0"/><path d="m432 512h-160c-20.585938 0-37.332031-16.746094-37.332031-37.332031v-330.667969c0-20.585938 16.746093-37.332031 37.332031-37.332031h160c20.585938 0 37.332031 16.746093 37.332031 37.332031v330.667969c0 20.585937-16.746093 37.332031-37.332031 37.332031zm-160-373.332031c-2.945312 0-5.332031 2.386719-5.332031 5.332031v330.667969c0 2.941406 2.386719 5.332031 5.332031 5.332031h160c2.945312 0 5.332031-2.390625 5.332031-5.332031v-330.667969c0-2.945312-2.386719-5.332031-5.332031-5.332031zm0 0"/><path d="m112 325.332031h-96c-8.832031 0-16-7.167969-16-16s7.167969-16 16-16h96c8.832031 0 16 7.167969 16 16s-7.167969 16-16 16zm0 0"/><path d="m453.332031 325.332031h-202.664062c-8.832031 0-16-7.167969-16-16s7.167969-16 16-16h202.664062c8.832031 0 16 7.167969 16 16s-7.167969 16-16 16zm0 0"/><path d="m352 512c-8.832031 0-16-7.167969-16-16v-373.332031c0-8.832031 7.167969-16 16-16s16 7.167969 16 16v373.332031c0 8.832031-7.167969 16-16 16zm0 0"/></svg>