<svg height="512pt" viewBox="-21 0 512 512" width="512pt" xmlns="http://www.w3.org/2000/svg"><path d="m276.203125 10.132812c-2.390625-6.121093-8.300781-10.132812-14.871094-10.132812h-160c-6.570312 0-12.480469 4.011719-14.867187 10.132812-2.410156 6.125-.855469 13.078126 3.96875 17.558594l80 74.664063c3.070312 2.882812 6.972656 4.3125 10.898437 4.3125s7.832031-1.429688 10.925781-4.3125l80-74.664063c4.796876-4.480468 6.375-11.433594 3.945313-17.558594zm0 0" fill="#2196f3"/><path d="m85.332031 512h-42.664062c-23.53125 0-42.667969-19.136719-42.667969-42.667969v-320c0-23.53125 19.136719-42.664062 42.667969-42.664062h42.664062c23.53125 0 42.667969 19.132812 42.667969 42.664062v320c0 23.53125-19.136719 42.667969-42.667969 42.667969zm0-362.710938-42.664062.042969v320h42.664062zm0 0" fill="#cfd8dc"/><path d="m426.667969 512h-149.335938c-23.53125 0-42.664062-19.136719-42.664062-42.667969v-320c0-23.53125 19.132812-42.664062 42.664062-42.664062h149.335938c23.53125 0 42.664062 19.132812 42.664062 42.664062v320c0 23.53125-19.132812 42.667969-42.664062 42.667969zm0-362.710938-149.335938.042969v320h149.335938zm0 0" fill="#607d8b"/><path d="m106.667969 330.667969h-85.335938c-11.796875 0-21.332031-9.539063-21.332031-21.335938s9.535156-21.332031 21.332031-21.332031h85.335938c11.796875 0 21.332031 9.535156 21.332031 21.332031s-9.535156 21.335938-21.332031 21.335938zm0 0" fill="#cfd8dc"/><g fill="#607d8b"><path d="m448 330.667969h-192c-11.796875 0-21.332031-9.539063-21.332031-21.335938s9.535156-21.332031 21.332031-21.332031h192c11.796875 0 21.332031 9.535156 21.332031 21.332031s-9.535156 21.335938-21.332031 21.335938zm0 0"/><path d="m352 512c-11.796875 0-21.332031-9.535156-21.332031-21.332031v-362.667969c0-11.796875 9.535156-21.332031 21.332031-21.332031s21.332031 9.535156 21.332031 21.332031v362.667969c0 11.796875-9.535156 21.332031-21.332031 21.332031zm0 0"/></g></svg>