<svg height="512pt" viewBox="0 -21 512 512" width="512pt" xmlns="http://www.w3.org/2000/svg"><path d="m102.355469 277.078125-74.664063-80c-4.480468-4.820313-11.414062-6.421875-17.558594-3.96875-6.121093 2.410156-10.132812 8.320313-10.132812 14.890625v160c0 6.570312 4.011719 12.480469 10.132812 14.871094 1.898438.765625 3.882813 1.128906 5.867188 1.128906 4.351562 0 8.597656-1.769531 11.691406-5.078125l74.664063-80c5.742187-6.144531 5.742187-15.699219 0-21.84375zm0 0" fill="#42a5f5"/><path d="m16 384c-1.984375 0-3.96875-.363281-5.867188-1.109375-6.121093-2.410156-10.132812-8.320313-10.132812-14.890625v-160c0-6.570312 4.011719-12.480469 10.132812-14.890625 6.144532-2.410156 13.078126-.851563 17.558594 3.96875l74.664063 80c5.761719 6.144531 5.761719 15.679687 0 21.824219l-74.664063 80c-3.09375 3.328125-7.339844 5.097656-11.691406 5.097656zm16-135.402344v78.804688l36.777344-39.402344zm0 0"/><path d="m474.667969 469.332031h-330.667969c-20.585938 0-37.332031-16.746093-37.332031-37.332031v-53.332031c0-20.589844 16.746093-37.335938 37.332031-37.335938h330.667969c20.585937 0 37.332031 16.746094 37.332031 37.335938v53.332031c0 20.585938-16.746094 37.332031-37.332031 37.332031zm-330.667969-96c-2.945312 0-5.332031 2.390625-5.332031 5.335938v53.332031c0 2.945312 2.386719 5.332031 5.332031 5.332031h330.667969c2.941406 0 5.332031-2.386719 5.332031-5.332031v-53.332031c0-2.945313-2.390625-5.335938-5.332031-5.335938zm0 0"/><path d="m474.667969 234.667969h-330.667969c-20.585938 0-37.332031-16.746094-37.332031-37.335938v-160c0-20.585937 16.746093-37.332031 37.332031-37.332031h330.667969c20.585937 0 37.332031 16.746094 37.332031 37.332031v160c0 20.589844-16.746094 37.335938-37.332031 37.335938zm-330.667969-202.667969c-2.945312 0-5.332031 2.390625-5.332031 5.332031v160c0 2.945313 2.386719 5.335938 5.332031 5.335938h330.667969c2.941406 0 5.332031-2.390625 5.332031-5.335938v-160c0-2.941406-2.390625-5.332031-5.332031-5.332031zm0 0"/><path d="m309.332031 469.332031c-8.832031 0-16-7.167969-16-16v-96c0-8.832031 7.167969-16 16-16s16 7.167969 16 16v96c0 8.832031-7.167969 16-16 16zm0 0"/><path d="m309.332031 234.667969c-8.832031 0-16-7.167969-16-16v-202.667969c0-8.832031 7.167969-16 16-16s16 7.167969 16 16v202.667969c0 8.832031-7.167969 16-16 16zm0 0"/><path d="m496 133.332031h-373.332031c-8.832031 0-16-7.167969-16-16s7.167969-16 16-16h373.332031c8.832031 0 16 7.167969 16 16s-7.167969 16-16 16zm0 0"/></svg>