<svg height="512pt" viewBox="-21 0 512 512" width="512pt" xmlns="http://www.w3.org/2000/svg"><path d="m277.078125 102.355469c3.070313 2.882812 6.996094 4.3125 10.921875 4.3125s7.851562-1.429688 10.921875-4.3125l80-74.664063c4.800781-4.480468 6.378906-11.433594 3.96875-17.558594-2.410156-6.121093-8.320313-10.132812-14.890625-10.132812h-160c-6.570312 0-12.480469 4.011719-14.890625 10.132812-2.410156 6.125-.832031 13.078126 3.96875 17.558594zm0 0" fill="#2196f3"/><path d="m426.667969 512h-42.667969c-23.53125 0-42.667969-19.136719-42.667969-42.667969v-320c0-23.53125 19.136719-42.664062 42.667969-42.664062h42.667969c23.53125 0 42.664062 19.132812 42.664062 42.664062v320c0 23.53125-19.132812 42.667969-42.664062 42.667969zm-42.667969-362.667969v320.023438l42.667969-.023438v-320zm0 0" fill="#cfd8dc"/><path d="m192 512h-149.332031c-23.53125 0-42.667969-19.136719-42.667969-42.667969v-320c0-23.53125 19.136719-42.664062 42.667969-42.664062h149.332031c23.53125 0 42.667969 19.132812 42.667969 42.664062v320c0 23.53125-19.136719 42.667969-42.667969 42.667969zm-149.332031-362.667969v320.023438l149.332031-.023438v-320zm0 0" fill="#607d8b"/><path d="m448 330.667969h-85.332031c-11.777344 0-21.335938-9.539063-21.335938-21.335938s9.558594-21.332031 21.335938-21.332031h85.332031c11.777344 0 21.332031 9.535156 21.332031 21.332031s-9.554687 21.335938-21.332031 21.335938zm0 0" fill="#cfd8dc"/><g fill="#607d8b"><path d="m213.332031 330.667969h-192c-11.773437 0-21.332031-9.539063-21.332031-21.335938s9.558594-21.332031 21.332031-21.332031h192c11.777344 0 21.335938 9.535156 21.335938 21.332031s-9.558594 21.335938-21.335938 21.335938zm0 0"/><path d="m117.332031 512c-11.773437 0-21.332031-9.535156-21.332031-21.332031v-362.667969c0-11.796875 9.558594-21.332031 21.332031-21.332031 11.777344 0 21.335938 9.535156 21.335938 21.332031v362.667969c0 11.796875-9.558594 21.332031-21.335938 21.332031zm0 0"/></g></svg>