<svg height="426pt" viewBox="-42 0 426 426.66667" width="426pt" xmlns="http://www.w3.org/2000/svg"><path d="m325.664062 426.667969h-309.332031c-6.164062 0-11.796875-3.542969-14.441406-9.132813-2.648437-5.566406-1.859375-12.160156 2.023437-16.960937l151.832032-187.242188-151.851563-187.242187c-3.8828122-4.800782-4.652343-11.414063-2.003906-16.960938 2.644531-5.585937 8.277344-9.128906 14.441406-9.128906h309.332031c8.832032 0 16 7.167969 16 16v53.332031c0 8.832031-7.167968 16-16 16-8.832031 0-16-7.167969-16-16v-37.332031h-259.753906l138.859375 171.242188c4.757813 5.867187 4.757813 14.292968 0 20.160156l-138.859375 171.265625h259.753906v-37.335938c0-8.832031 7.167969-16 16-16 8.832032 0 16 7.167969 16 16v53.335938c0 8.832031-7.167968 16-16 16zm0 0"/></svg>